<svg xmlns="http://www.w3.org/2000/svg" version="1.0" width="572.000000pt" height="436.000000pt" viewBox="0 0 572.000000 436.000000" preserveAspectRatio="xMidYMid meet">

<g transform="translate(0.000000,436.000000) scale(0.100000,-0.100000)" fill="#102970" stroke="none">
<path d="M1701 4233 c-5 -10 -12 -35 -16 -56 -4 -20 -24 -65 -45 -99 -36 -61 -59 -143 -90 -325 -5 -29 -25 -93 -44 -142 -25 -60 -36 -105 -36 -139 l0 -50 -67 -40 c-38 -23 -147 -93 -243 -155 -174 -114 -175 -115 -183 -158 -40 -214 -70 -269 -246 -448 -159 -162 -150 -142 -127 -298 15 -99 29 -128 93 -184 l38 -32 3 -201 c2 -111 7 -214 11 -231 6 -26 22 -38 111 -85 58 -30 129 -70 158 -88 61 -38 104 -47 254 -57 99 -7 118 -12 235 -60 149 -62 273 -116 360 -157 35 -16 100 -38 145 -49 64 -16 96 -31 138 -63 30 -23 80 -59 112 -80 31 -20 87 -71 124 -113 38 -42 116 -111 174 -155 58 -43 173 -146 255 -227 140 -139 157 -152 255 -201 58 -29 148 -79 201 -112 54 -32 103 -58 109 -58 15 0 26 13 85 102 25 37 45 75 45 85 0 10 -11 53 -25 96 -14 43 -36 135 -50 203 -14 69 -27 135 -31 148 -4 17 9 41 58 102 35 44 77 107 93 140 17 32 71 136 121 229 50 94 122 227 158 298 37 70 71 127 76 127 4 0 11 -22 15 -49 11 -84 -3 -80 290 -83 l260 -3 5 120 5 120 40 6 c22 4 121 10 220 14 318 11 776 43 795 55 14 9 -6 473 -22 499 -20 32 -135 109 -239 159 -106 51 -133 73 -182 151 -24 38 -78 59 -324 124 l-123 33 -125 118 c-93 89 -131 132 -150 172 -14 29 -25 58 -25 63 0 6 -14 40 -30 75 -29 60 -43 75 -228 228 -171 142 -296 235 -424 313 -32 20 -98 134 -113 197 -3 15 -13 32 -21 39 -19 15 -266 25 -291 11 -10 -6 -32 -37 -48 -68 -29 -55 -35 -60 -90 -79 -33 -11 -91 -38 -128 -60 -38 -22 -100 -58 -138 -80 -38 -22 -117 -76 -176 -120 -60 -44 -142 -95 -185 -113 l-77 -33 -114 91 c-127 101 -127 101 -143 260 -8 80 -21 103 -82 135 -26 14 -81 55 -122 91 -62 53 -154 120 -217 157 -7 5 -16 0 -22 -10z m118 -97 c36 -25 97 -72 135 -105 39 -33 81 -63 95 -66 39 -10 51 -24 51 -59 1 -17 9 -78 18 -136 l18 -105 70 -50 c39 -27 96 -69 126 -92 30 -24 62 -43 70 -43 24 0 201 86 228 112 78 71 435 284 508 302 48 12 61 25 104 105 l17 31 113 0 c62 0 118 -4 124 -8 7 -4 32 -51 57 -104 51 -107 64 -122 150 -167 51 -27 212 -141 272 -192 11 -10 54 -46 95 -81 176 -148 202 -179 239 -274 41 -106 38 -101 126 -199 99 -110 200 -193 244 -201 20 -3 97 -25 171 -49 74 -24 150 -46 168 -50 25 -5 40 -19 66 -60 40 -61 79 -90 233 -170 61 -31 125 -69 142 -84 l31 -26 7 -190 c4 -104 7 -208 7 -230 l1 -40 -60 -7 c-276 -30 -963 -61 -977 -43 -5 6 -27 48 -51 95 l-42 85 -300 5 c-165 3 -310 3 -322 1 -21 -3 -20 -5 15 -31 68 -50 107 -114 118 -193 6 -44 2 -55 -86 -229 -51 -101 -116 -223 -145 -273 -28 -49 -79 -144 -113 -210 -37 -73 -83 -145 -117 -183 -45 -52 -55 -70 -55 -100 0 -61 45 -277 81 -386 25 -79 25 -84 -18 -143 -21 -28 -43 -59 -48 -68 -10 -16 -17 -13 -80 25 -39 24 -122 68 -185 98 -113 53 -118 57 -250 191 -74 75 -180 170 -235 211 -55 41 -147 120 -205 175 -162 155 -282 243 -366 264 -103 27 -152 45 -244 88 -104 49 -194 89 -340 151 -89 37 -102 40 -221 45 -137 5 -153 10 -294 97 -35 22 -91 53 -123 69 l-59 30 -6 218 c-3 120 -8 225 -12 234 -3 9 -18 22 -32 30 -56 30 -102 153 -103 273 0 48 2 52 63 111 183 181 216 219 252 298 20 43 43 108 52 145 8 37 18 78 22 92 7 24 115 108 193 150 35 19 250 159 274 179 6 5 16 42 22 83 6 40 23 101 36 135 14 34 39 129 55 211 26 133 36 162 82 251 29 56 57 101 62 101 5 0 39 -20 76 -44z" fill="#102970"/>
<path d="M1291 2941 c0 -143 4 -263 9 -266 5 -3 148 -8 319 -12 l309 -6 45 39 c61 54 166 89 246 81 68 -6 98 -20 173 -81 l56 -45 256 -2 c141 -1 259 1 263 5 15 15 -70 157 -134 226 -125 135 -233 205 -403 265 -113 39 -131 40 -788 51 l-352 5 1 -260z" fill="#102970"/>
<path d="M3372 3128 c-15 -20 -244 -480 -240 -484 2 -2 148 -5 323 -6 l319 -3 128 233 c70 128 129 240 130 250 3 16 -21 17 -323 20 -253 2 -329 -1 -337 -10z" fill="#102970"/>
<path d="M1298 2614 c-5 -4 -8 -25 -8 -46 l0 -38 48 0 c26 0 144 -3 263 -7 119 -3 227 -3 240 0 17 4 28 17 36 44 6 21 9 40 7 42 -8 9 -579 13 -586 5z" fill="#102970"/>
<path d="M2490 2596 c0 -8 5 -18 10 -21 6 -3 10 -17 10 -30 0 -12 6 -25 13 -28 22 -8 487 -8 487 0 0 4 -5 25 -11 46 -9 35 -12 37 -52 38 -463 10 -457 10 -457 -5z" fill="#102970"/>
<path d="M3144 2587 c-3 -8 -4 -30 -2 -49 l3 -33 277 -3 277 -3 21 41 c12 23 20 43 18 45 -2 2 -135 6 -296 10 -253 6 -293 5 -298 -8z" fill="#102970"/>
<path d="M3780 2548 c-11 -18 -20 -36 -20 -40 0 -5 39 -8 86 -8 76 0 85 2 74 15 -7 8 -16 15 -21 15 -5 0 -27 11 -49 25 -22 14 -42 25 -45 25 -3 0 -14 -15 -25 -32z" fill="#102970"/>
<path d="M1302 2482 c-8 -6 -12 -24 -10 -48 l3 -39 274 -8 c219 -6 276 -5 283 5 11 18 10 76 -2 83 -16 10 -534 17 -548 7z" fill="#102970"/>
<path d="M2583 2472 l-43 -3 0 -44 c0 -26 5 -44 13 -46 6 -2 113 -4 237 -4 l225 0 0 45 0 45 -195 5 c-107 3 -214 4 -237 2z" fill="#102970"/>
<path d="M3144 2456 c-3 -8 -4 -31 -2 -52 l3 -37 223 -4 c247 -4 257 -2 282 57 7 17 11 33 8 35 -3 3 -118 7 -257 10 -205 3 -253 2 -257 -9z" fill="#102970"/>
<path d="M3739 2450 c-22 -13 -60 -78 -50 -84 10 -6 450 -10 456 -4 3 2 -23 23 -56 46 l-60 42 -137 5 c-87 4 -143 2 -153 -5z" fill="#102970"/>
<path d="M1315 2338 c-2 -7 -1 -29 3 -48 l8 -35 279 -3 c154 -1 285 0 292 2 19 8 -22 82 -49 90 -13 3 -137 6 -276 6 -193 0 -254 -3 -257 -12z" fill="#102970"/>
<path d="M2675 2330 l-320 -5 -3 -31 c-2 -17 3 -36 10 -42 9 -7 116 -11 323 -12 171 -1 316 -1 323 -1 7 1 12 17 12 45 0 27 -5 45 -12 47 -7 2 -157 2 -333 -1z" fill="#102970"/>
<path d="M3149 2304 c-5 -16 -8 -39 -4 -51 l5 -23 200 0 200 0 20 41 c12 23 18 44 15 47 -4 4 -101 8 -216 10 l-209 3 -11 -27z" fill="#102970"/>
<path d="M3631 2287 c-11 -19 -21 -39 -21 -45 0 -13 105 -18 413 -21 277 -2 269 -5 197 64 l-31 30 -268 3 -268 4 -22 -35z" fill="#102970"/>
<path d="M1350 2201 c0 -6 8 -26 17 -46 l17 -35 225 -2 c124 0 270 -2 324 -3 l99 -2 -46 46 -46 46 -295 3 c-194 2 -295 -1 -295 -7z" fill="#102970"/>
<path d="M3156 2192 c-4 -3 -6 -25 -6 -49 l0 -43 162 2 163 3 20 37 c11 20 17 39 15 41 -8 7 -348 15 -354 9z" fill="#102970"/>
<path d="M3565 2157 c-8 -20 -15 -38 -15 -41 0 -13 67 -16 417 -23 l385 -6 -21 41 c-11 22 -25 43 -29 46 -5 3 -169 8 -365 12 l-357 7 -15 -36z" fill="#102970"/>
<path d="M1410 2063 c0 -20 74 -131 118 -176 103 -106 228 -183 393 -241 93 -33 114 -37 267 -45 92 -6 318 -11 502 -13 l335 -3 3 232 2 231 -27 6 c-52 9 -1593 18 -1593 9z" fill="#102970"/>
<path d="M3154 2045 c-3 -6 -3 -114 -2 -240 3 -204 5 -230 19 -233 13 -2 43 47 120 194 57 109 109 210 116 225 7 15 17 30 23 34 29 18 -3 24 -131 27 -90 2 -143 -1 -145 -7z" fill="#102970"/>
</g>
</svg>